<?xml version="1.0" encoding="UTF-8" standalone="no"?>
<!DOCTYPE svg PUBLIC "-//W3C//DTD SVG 1.1//EN" "http://www.w3.org/Graphics/SVG/1.1/DTD/svg11.dtd">
<!-- Generated by Microsoft Visio, SVG Export logo.svg Page-1 -->
<svg xmlns="http://www.w3.org/2000/svg" xmlns:xlink="http://www.w3.org/1999/xlink" xmlns:ev="http://www.w3.org/2001/xml-events"
		xmlns:v="http://schemas.microsoft.com/visio/2003/SVGExtensions/" width="2.23542in" height="0.550781in"
		viewBox="0 0 160.95 39.6563" xml:space="preserve" color-interpolation-filters="sRGB" class="st3">
	<v:documentProperties v:langID="1033" v:viewMarkup="false">
		<v:userDefs>
			<v:ud v:nameU="msvNoAutoConnect" v:val="VT0(1):26"/>
		</v:userDefs>
	</v:documentProperties>

	<style type="text/css">
	<![CDATA[
		.st1 {fill:#000000;stroke:none;stroke-linecap:round;stroke-linejoin:round;stroke-width:0.75}
		.st2 {fill:#ff0000;stroke:none;stroke-linecap:round;stroke-linejoin:round;stroke-width:0.75}
		.st3 {fill:none;fill-rule:evenodd;font-size:12px;overflow:visible;stroke-linecap:square;stroke-miterlimit:3}
	]]>
	</style>

	<g v:mID="0" v:index="1" v:groupContext="foregroundPage">
		<title>Page-1</title>
		<v:pageProperties v:drawingScale="1" v:pageScale="1" v:drawingUnits="19" v:shadowOffsetX="9" v:shadowOffsetY="-9"/>
		<g id="shape1-1" v:mID="1" v:groupContext="shape" transform="translate(35.475,-31.0313)">
			<title>Sheet.1</title>
			<rect x="0" y="35.1563" width="27" height="4.5" class="st1"/>
		</g>
		<g id="shape2-3" v:mID="2" v:groupContext="shape" transform="translate(35.475,-13.0313)">
			<title>Sheet.2</title>
			<rect x="0" y="19.4063" width="4.5" height="20.25" class="st1"/>
		</g>
		<g id="shape3-5" v:mID="3" v:groupContext="shape" transform="translate(37.725,-13.0313)">
			<title>Sheet.3</title>
			<rect x="0" y="35.1563" width="24.75" height="4.5" class="st1"/>
		</g>
		<g id="shape4-7" v:mID="4" v:groupContext="shape" transform="translate(35.475,-4.03125)">
			<title>Sheet.4</title>
			<rect x="0" y="35.1188" width="27" height="4.5375" class="st1"/>
		</g>
		<g id="shape5-9" v:mID="5" v:groupContext="shape" transform="translate(66.975,-31.1063)">
			<title>Sheet.5</title>
			<rect x="0" y="35.1563" width="27" height="4.5" class="st1"/>
		</g>
		<g id="shape6-11" v:mID="6" v:groupContext="shape" transform="translate(73.725,-4.10625)">
			<title>Sheet.6</title>
			<rect x="0" y="17.0813" width="4.5" height="22.575" class="st1"/>
		</g>
		<g id="shape7-13" v:mID="7" v:groupContext="shape" transform="translate(3.975,-4.03125)">
			<title>Sheet.7</title>
			<rect x="0" y="8.025" width="4.5" height="31.6313" class="st2"/>
		</g>
		<g id="shape8-15" v:mID="8" v:groupContext="shape" transform="translate(82.9594,-4.10625)">
			<title>Sheet.8</title>
			<rect x="0" y="17.0813" width="4.5" height="22.575" class="st1"/>
		</g>
		<g id="shape9-17" v:mID="9" v:groupContext="shape" transform="translate(73.725,-4.10625)">
			<title>Sheet.9</title>
			<rect x="0" y="35.1563" width="13.7344" height="4.5" class="st1"/>
		</g>
		<g id="shape10-19" v:mID="10" v:groupContext="shape" transform="translate(100.725,-31.1063)">
			<title>Sheet.10</title>
			<rect x="0" y="35.1563" width="24.75" height="4.5" class="st1"/>
		</g>
		<g id="shape11-21" v:mID="11" v:groupContext="shape" transform="translate(98.475,-13.1063)">
			<title>Sheet.11</title>
			<rect x="0" y="17.0813" width="4.5" height="22.575" class="st1"/>
		</g>
		<g id="shape12-23" v:mID="12" v:groupContext="shape" transform="translate(100.725,-13.1063)">
			<title>Sheet.12</title>
			<rect x="0" y="35.1563" width="24.75" height="4.5" class="st1"/>
		</g>
		<g id="shape13-25" v:mID="13" v:groupContext="shape" transform="translate(98.475,-4.10625)">
			<title>Sheet.13</title>
			<rect x="0" y="35.1188" width="27" height="4.5375" class="st1"/>
		</g>
		<g id="shape14-27" v:mID="14" v:groupContext="shape" transform="translate(57.1313,22.9875) rotate(90)">
			<title>Sheet.14</title>
			<rect x="0" y="35.1563" width="12.6375" height="4.5" class="st2"/>
		</g>
		<g id="shape15-29" v:mID="15" v:groupContext="shape" transform="translate(17.475,-3.99375)">
			<title>Sheet.15</title>
			<rect x="0" y="35.0813" width="13.5" height="4.575" class="st2"/>
		</g>
		<g id="shape16-31" v:mID="16" v:groupContext="shape" transform="translate(19.125,-11.9625)">
			<title>Sheet.16</title>
			<path d="M0 39.66 A11.85 11.85 -180 1 0 0 15.96 L0 20.52 A7.20941 7.20941 0 0 1 0 34.94 L0 39.66 Z" class="st2"/>
		</g>
		<g id="shape17-33" v:mID="17" v:groupContext="shape" transform="translate(3.975,-31.1063)">
			<title>Sheet.17</title>
			<rect x="0" y="35.1" width="15.6562" height="4.55625" class="st2"/>
		</g>
		<g id="shape18-35" v:mID="18" v:groupContext="shape" transform="translate(129.975,-4.0125)">
			<title>Sheet.18</title>
			<rect x="0" y="8.025" width="4.5" height="31.6313" class="st1"/>
		</g>
		<g id="shape19-37" v:mID="19" v:groupContext="shape" transform="translate(183.131,23.0063) rotate(90)">
			<title>Sheet.19</title>
			<rect x="0" y="35.1563" width="12.6375" height="4.5" class="st1"/>
		</g>
		<g id="shape20-39" v:mID="20" v:groupContext="shape" transform="translate(143.475,-3.975)">
			<title>Sheet.20</title>
			<rect x="0" y="35.0813" width="13.5" height="4.575" class="st1"/>
		</g>
		<g id="shape21-41" v:mID="21" v:groupContext="shape" transform="translate(145.125,-11.9437)">
			<title>Sheet.21</title>
			<path d="M0 39.66 A11.85 11.85 -180 1 0 0 15.96 L0 20.52 A7.20941 7.20941 0 0 1 0 34.94 L0 39.66 Z" class="st1"/>
		</g>
		<g id="shape22-43" v:mID="22" v:groupContext="shape" transform="translate(132.163,-31.0875)">
			<title>Sheet.22</title>
			<rect x="0" y="35.1" width="13" height="4.55625" class="st1"/>
		</g>
	</g>
</svg>
